# xmcd
#
# Track frame offsets: 
#        150
#        12119
#        57194
#        80428
#        92867
#        108614
#        124385
#        142590
#        159399
#        173619
#        184275
#        196799
#        210369
#        240767
#        250782
#
# Disc length: 3681 seconds
#
# Revision: 0
# Processed by: cddbd v1.5.2PL0 Copyright (c) Steve Scherf et al.
# Submitted via: ExactAudioCopy v0.95b4
#
DISCID=b50e5f0f
DTITLE=Loshults Kyrka - Orgelinvigning
DYEAR=2006
DGENRE=Acoustic
TTITLE0=Klockringning - Sv Ps 1: 1-3 Gud, var Gud, vi livor dig
TTITLE1=Bibelord - Tal - Invigningsord
TTITLE2=Niels W. Grade (1817-1890) Ur "Tre Tonestykker" Op. 22 Moderat
TTITLE2=o F-Dur (1851)
TTITLE3=Körsang: F. Couperin - Jubilemus
TTITLE4=Joseph Jongen (1873-1953) Op. 108/1 - Scherzetto (1938)
TTITLE5=Alfred Hollins (1865-1942) A Trumpet Minuet (1929)
TTITLE6=Robert Schumann (1810-1856) Ur "Studien für den Pedalflügel" O
TTITLE6=p. 56 - Studie i Ass-Dur (1856)
TTITLE7=William Wolstenholme (1865-1931) Op. 17/2 - Allegretto (1900)
TTITLE8=Körsang: J.S.Bach, text: H.Nyberg Du är var God
TTITLE9=Bön - Väsignelse
TTITLE10=Sv Ps 297 Härlig är jorden
TTITLE11=Körsang: Irländsk melodi, Sv Ps 188: 1-3 Sa gar än en dag ifr
TTITLE11=an var tid
TTITLE12=Johann Heinrich Christian Rinck (1779-1846) - Flöten-Conzert 
TTITLE12=für die Orgel, Op. 55 (1819-21) - Allegro maestoso - Adagio -
TTITLE12=Rond
TTITLE13=Johann Heinrich Christian Rinck (1779-1846) - Flöten-Conzert 
TTITLE13=für die Orgel, Op. 55 (1819-21) - Allegro maestoso - Adagio -
TTITLE13=Rond
TTITLE14=Johann Heinrich Christian Rinck (1779-1846) - Flöten-Conzert 
TTITLE14=für die Orgel, Op. 55 (1819-21) - Allegro maestoso - Adagio -
TTITLE14=Rond
EXTD=
EXTT0=
EXTT1=
EXTT2=
EXTT3=
EXTT4=
EXTT5=
EXTT6=
EXTT7=
EXTT8=
EXTT9=
EXTT10=
EXTT11=
EXTT12=
EXTT13=
EXTT14=
PLAYORDER=
